<?xml version="1.0" encoding="UTF-8" standalone="no"?>
<!DOCTYPE svg PUBLIC "-//W3C//DTD SVG 1.1//EN" "http://www.w3.org/Graphics/SVG/1.1/DTD/svg11.dtd">
<svg version="1.1" xmlns="http://www.w3.org/2000/svg" xmlns:xlink="http://www.w3.org/1999/xlink" preserveAspectRatio="xMidYMid meet" viewBox="0 0 1279.67 590" width="1279.67" height="590"><defs><path d="M126.06 0L1280 0L1280 28.23L126.06 28.23L126.06 0Z" id="b2PZEJRIZQ"></path><path d="M0 328.8L158.22 328.8L158.22 357.04L0 357.04L0 328.8Z" id="dotqURS8"></path><path d="M0 548.86L1153.94 548.86L1153.94 577.1L0 577.1L0 548.86Z" id="aIlp9REaW"></path><path d="M0 0L31.96 0L31.96 577.1L0 577.1L0 0Z" id="az6LKbIm0"></path><path d="M1248.04 0L1280 0L1280 577.1L1248.04 577.1L1248.04 0Z" id="b4Quzfc8Xw"></path><path d="M375.35 0L407.31 0L407.31 246.14L375.35 246.14L375.35 0Z" id="asv2LWnrA"></path><path d="M126.06 107.65L158.01 107.65L158.01 244.98L126.06 244.98L126.06 107.65Z" id="aXmpOtlWz"></path><path d="M249.16 219.89L281.12 219.89L281.12 357.21L249.16 357.21L249.16 219.89Z" id="aIqF45RGT"></path><path d="M498.38 217.91L530.34 217.91L530.34 355.23L498.38 355.23L498.38 217.91Z" id="c3rGk3wwMH"></path><path d="M498.56 439.77L530.52 439.77L530.52 577.1L498.56 577.1L498.56 439.77Z" id="c1qCCWbk1H"></path><path d="M622.37 110.51L654.33 110.51L654.33 247.84L622.37 247.84L622.37 110.51Z" id="b2FK1DsaGU"></path><path d="M873.28 107.65L905.24 107.65L905.24 244.98L873.28 244.98L873.28 107.65Z" id="e2sxtCcm97"></path><path d="M1121.78 219.89L1153.74 219.89L1153.74 357.21L1121.78 357.21L1121.78 219.89Z" id="h2ymbP5Kbs"></path><path d="M873.28 328.7L905.24 328.7L905.24 466.03L873.28 466.03L873.28 328.7Z" id="a1CCrGqbdw"></path><path d="M623.99 328.7L655.94 328.7L655.94 466.03L623.99 466.03L623.99 328.7Z" id="c1fI2jVr1s"></path><path d="M372.12 327L404.08 327L404.08 464.33L372.12 464.33L372.12 327Z" id="e1D7dHEJLr"></path><path d="M749.38 439.77L781.34 439.77L781.34 577.1L749.38 577.1L749.38 439.77Z" id="a13hwrODSs"></path><path d="M997.93 107.37L1029.89 107.37L1029.89 356.93L997.93 356.93L997.93 107.37Z" id="dqbsZClko"></path><path d="M126.06 217.91L530.34 217.91L530.34 246.14L126.06 246.14L126.06 217.91Z" id="a21FtfaU0a"></path><path d="M122.83 436.09L404.08 436.09L404.08 464.33L122.83 464.33L122.83 436.09Z" id="ab7NAWYgj"></path><path d="M623.99 437.79L905.24 437.79L905.24 466.03L623.99 466.03L623.99 437.79Z" id="b4trMFVl67"></path><path d="M998.75 437.79L1280 437.79L1280 466.03L998.75 466.03L998.75 437.79Z" id="e2LdO1zOAs"></path><path d="M748.63 328.7L1029.89 328.7L1029.89 356.93L748.63 356.93L748.63 328.7Z" id="eKu57o3zD"></path><path d="M873.28 107.65L1154.53 107.65L1154.53 135.88L873.28 135.88L873.28 107.65Z" id="iX8fybvYk"></path><path d="M748.63 219.6L780.59 219.6L780.59 356.93L748.63 356.93L748.63 219.6Z" id="alTZzgq6j"></path><path d="M496.11 110.51L654.33 110.51L654.33 138.74L496.11 138.74L496.11 110.51Z" id="afjlDvIku"></path><path d="M622.37 219.6L780.59 219.6L780.59 247.84L622.37 247.84L622.37 219.6Z" id="cNXaAKlb"></path><path d="M1121.78 219.89L1280 219.89L1280 248.12L1121.78 248.12L1121.78 219.89Z" id="bFLDf3Y20"></path><path d="M372.12 327L530.34 327L530.34 355.23L372.12 355.23L372.12 327Z" id="b28J8qTxuV"></path><path d="M126.06 107.65L284.28 107.65L284.28 135.88L126.06 135.88L126.06 107.65Z" id="agUehx6as"></path></defs><g><g><g><use xlink:href="#b2PZEJRIZQ" opacity="1" fill="#f8f8f8" fill-opacity="1"></use></g><g><use xlink:href="#dotqURS8" opacity="1" fill="#f8f8f8" fill-opacity="1"></use></g><g><use xlink:href="#aIlp9REaW" opacity="1" fill="#f8f8f8" fill-opacity="1"></use></g><g><use xlink:href="#az6LKbIm0" opacity="1" fill="#f8f8f8" fill-opacity="1"></use></g><g><use xlink:href="#b4Quzfc8Xw" opacity="1" fill="#f8f8f8" fill-opacity="1"></use></g><g><use xlink:href="#asv2LWnrA" opacity="1" fill="#f8f8f8" fill-opacity="1"></use></g><g><use xlink:href="#aXmpOtlWz" opacity="1" fill="#f8f8f8" fill-opacity="1"></use></g><g><use xlink:href="#aIqF45RGT" opacity="1" fill="#f8f8f8" fill-opacity="1"></use></g><g><use xlink:href="#c3rGk3wwMH" opacity="1" fill="#f8f8f8" fill-opacity="1"></use></g><g><use xlink:href="#c1qCCWbk1H" opacity="1" fill="#f8f8f8" fill-opacity="1"></use></g><g><use xlink:href="#b2FK1DsaGU" opacity="1" fill="#f8f8f8" fill-opacity="1"></use></g><g><use xlink:href="#e2sxtCcm97" opacity="1" fill="#f8f8f8" fill-opacity="1"></use></g><g><use xlink:href="#h2ymbP5Kbs" opacity="1" fill="#f8f8f8" fill-opacity="1"></use></g><g><use xlink:href="#a1CCrGqbdw" opacity="1" fill="#f8f8f8" fill-opacity="1"></use></g><g><use xlink:href="#c1fI2jVr1s" opacity="1" fill="#f8f8f8" fill-opacity="1"></use></g><g><use xlink:href="#e1D7dHEJLr" opacity="1" fill="#f8f8f8" fill-opacity="1"></use></g><g><use xlink:href="#a13hwrODSs" opacity="1" fill="#f8f8f8" fill-opacity="1"></use></g><g><use xlink:href="#dqbsZClko" opacity="1" fill="#f8f8f8" fill-opacity="1"></use></g><g><use xlink:href="#a21FtfaU0a" opacity="1" fill="#f8f8f8" fill-opacity="1"></use></g><g><use xlink:href="#ab7NAWYgj" opacity="1" fill="#f8f8f8" fill-opacity="1"></use></g><g><use xlink:href="#b4trMFVl67" opacity="1" fill="#f8f8f8" fill-opacity="1"></use></g><g><use xlink:href="#e2LdO1zOAs" opacity="1" fill="#f8f8f8" fill-opacity="1"></use></g><g><use xlink:href="#eKu57o3zD" opacity="1" fill="#f8f8f8" fill-opacity="1"></use></g><g><use xlink:href="#iX8fybvYk" opacity="1" fill="#f8f8f8" fill-opacity="1"></use></g><g><use xlink:href="#alTZzgq6j" opacity="1" fill="#f8f8f8" fill-opacity="1"></use></g><g><use xlink:href="#afjlDvIku" opacity="1" fill="#f8f8f8" fill-opacity="1"></use></g><g><use xlink:href="#cNXaAKlb" opacity="1" fill="#f8f8f8" fill-opacity="1"></use></g><g><use xlink:href="#bFLDf3Y20" opacity="1" fill="#f8f8f8" fill-opacity="1"></use></g><g><use xlink:href="#b28J8qTxuV" opacity="1" fill="#f8f8f8" fill-opacity="1"></use></g><g><use xlink:href="#agUehx6as" opacity="1" fill="#f8f8f8" fill-opacity="1"></use></g></g></g></svg>